<svg id="레이어_2" data-name="레이어 2" xmlns="http://www.w3.org/2000/svg" viewBox="0 0 217.8 310.57"><defs><style>.cls-1{fill:none;stroke:#231815;stroke-miterlimit:10;}</style></defs><path class="cls-1" d="M0,157.58l24.1-1.43H69.07s26.35.21,32.88,1.43,9,1.43,15.93,0,20.63-13.68,20.63-17.16-1.43-2-1.43-2l.21-13.48,1.22-5.31-1.43-5.11-1.42-8.37L134.43,91s-3.46,22.68-5.51,23.49-1.44,23.08,1,23.08-1,4.09-1,4.09l-5.52,1.84h3.88l.82,2.45-.41,2-4.7,3.07s-1.84,4.49-5.92,4.28-4.7-1.63-4.7-1.63l2.45-3.68s5.11-4.08,3.27-5.1-.61-5.31-.61-5.31-3.07-18.39,1-27.58l-.41-5.72.41-10,.2-10.42,2.86-7.8,4.9,2.08,1.1-.18,6.46-1,.41,1-1.63,1-3.88.4s-12.26,0-9.61-12,1.84-13.27,1.84-13.27l-1-2.52-1.63-4a54.8,54.8,0,0,1-.82-10.42c.2-4.9,3.68,6.34,3.68,6.34l-2.66,10a12.14,12.14,0,0,1-4.29-1.83c-2.65-1.64,2.66,1.63,2.66,1.63l1.84,1.63S116.05,67.1,113,71c0,0-.81,8.37.41,8.17s1.23,7.15-1.63,6.94L112,83l-1.43-1.43-.82,2s1.23,4.7.82,5.52l-3.06-2L106,81.6l1.63-5.11,1-3.88.62-11.23,2.65-7,.41-10.21.41-9.19s5.31-6.13,9.8-7.56l4.9-2L128.92,23l-3.68-4.29-1-5.31,1-5.93,3.68-5.31L133.61.51s3.68.41,4.9,1.43S142.6,4.8,142.6,4.8l2.25,4.29v4.7a49.37,49.37,0,0,1-4,7.43c-2.29,3.39-5.2,6.15-7.66,3.6-4.9-5.11-4.28-6.95-4.28-6.95l-2.66-.2-.82-3.48,1.43-1.83,2,1.83s.2-7.35,7.14-4.49V6.64s5.93,2.24,5.72,3.67.21-1.43.21-1.43,1.22.21-2.66-4.49,11.44,9.4.82,21c0,0-1.43,18.18-14.3,3.88l3.07,4.08,2,2.46,5.1.61a8.86,8.86,0,0,0,5.31-8.78s13.89,2.45,14.1,11.64c0,0,2.24,20.63,4.7,23.28s-.82,15.49-.82,15.49,2.45,9.84-1.84,11.07L154,92l-.61-2.66,1.63-4.49-2.66.81.62-3.06,2.65-3.08a67.52,67.52,0,0,0-3.27-15.71l-2.86-6.33V53.41l5.72-.41-6.94,2.86L147.91,44c-.61,11-.82,13.48,1.23,28,0,0,3.88,10.42-7.36,8.37,0,0-7.76,1.23-3.88,1.84s10.62-.2,10.62-.2l1.23,1.84s-3.68,29-.41,31c0,0-3.88,24.72-1,25.33s-2.25,1.43-2.25,1.43.21,3.47,9,11.44c0,0-.82,4.29-5.72,2.86l-6.94-4.7s-10.42-.61-3.27-7.56c0,0,5.31,8.9,10.21,10,0,0,16.14-2.45,47.59.61,0,0,46.78,9.4-1.43,14.91S1.87,154.72,3.3,214.57s1.63,96,1.63,96"/></svg>