<svg id="레이어_2" data-name="레이어 2" xmlns="http://www.w3.org/2000/svg" viewBox="0 0 500 487.8">
<path class="cls-1" d="M23.61,3.05,22.22,4.18,19.69,7.26l1,2.11,2.64.88,2.67-.93L27.1,7.13,25.43,4.85,29.17.14,31.91,2v8.3l-.45,5.15L41.92,3.66l6.39-.36L43.12,5.67l1.29,3.75,3.24-4.13L47.2,8.64l-3.52,2.91,4.63-1.07.77-4,2.45-.12L50.24,1.85,52.1,3.58,50.44,13.82,53.06,1.47,55.24,2,53.39,13.12l1.45,2.16L61,5.93l1.43-2.17-2,5.61,2.64.88,2.67-.93,1.05-2.19-.72-2,2.79-5L71,.67l.09,14.73,4.15-3.69,3.65-3.94L83.08,3.3l-6.34,1,7,.48-2.47,3.4,2.46,3.06L85.05.32l3.57,1.33L88.13,15.4l3.43-7.63,2.87-6.4,3.24.27-.15,4.44,7-1.56L92.62,8.74l13.15-1,2.13.57L96.21,11.15l1.81,1,.13,2.16,6.06,1.23L114.84,2a5.09,5.09,0,0,0,2,.5,25.2,25.2,0,0,0,3.37.06l4.51.3,1,2-3.1,3.22-3.45-.29h-2.37L116.48,4l-.1,8.93L120.63,6l3.62,3.51,1,3.59,1.59-.38,3.72-2.94L135,9.26l.85-2.58-2.77-1-3.53,2.17.18,5.7,3.15,1.14,4-2.2,3-5.56L143,6.17l2.71.08-5.18,4-1.27,2.09L142.45,14l2-1.18,2.11.81V11.37l-2.11-1.88,6.27-1.26L156.89,7l-2.64-1.31-2.48.07-1.49,5.93,1.48,1.19,2.34,1,2.81-1.51,3.16-6L161.82,3l-1.47,7.61L160,12.46l4.7.07L163,6,169.52.62l9,.09-.73,3.2-8.5-.54,1.47,2.7,7.57.3L167,8.13l14.22.58-4.05.69-7,1.2,6.11,1.74-5.38,1.32,1.47,2.55H179"/>
</svg>