<svg xmlns="http://www.w3.org/2000/svg" xmlns:xlink="http://www.w3.org/1999/xlink" x="0px" y="0px" viewBox="0 0 200 200" style="enable-background:new 0 0 200 200;" xml:space="preserve">
	<style type="text/css">
		.st0{fill:#F29219;stroke:#FFFFFF;stroke-miterlimit:10;}
		.st1{fill:#88C122;stroke:#000000;stroke-miterlimit:10;}
		.st2{fill:#FFFFFF;stroke:#FFFFFF;stroke-miterlimit:10;}
	</style>
	<path class="st0" d="M180.81,102.71c0,52.75-42.91,72.05-85.86,70.17c-64.69-2.84-69.92-32.35-77.83-70.17C11.51,75.9,51.97,32.54,94.95,32.54C155.81,32.54,180.81,63.53,180.81,102.71z"/>
	<path class="st1" d="M100.24,27.74l-2.54,4.13l2.42,3.06c0.79,1,0.13,2.6-1.04,2.53l-5.86-0.34l-3.75,3.3c-1.13,0.99-2.77,0.37-3.16-1.2l-0.86-3.43l-4.13-1.22c-1.32-0.39-1.43-2.49-0.16-3.06l3.97-1.79l0.49-3.54c0.22-1.6,1.78-2.45,2.99-1.63l4.09,2.76l6.57-1.32C100.14,25.79,100.75,26.91,100.24,27.74z"/>
	<path class="st2" d="M129.86,134.2c-2.78,7.27-17.57,14.58-25.21,10.72c-7.63-3.85-19.57-11.98-16.79-19.25c2.78-7.27,18.33-0.13,26.68-0.97C125.5,123.59,132.64,126.93,129.86,134.2z"/>
	<path d="M141.58,84.9l-11.77-2.12c-1.01-0.18-1.71-1.28-1.55-2.44v0c0.16-1.17-0.27-2.19,2.12-1.78l11.77,2.12c1.01,0.18,1.71,1.28,1.55,2.44l0,0C143.54,84.29,142.59,85.08,141.58,84.9z"/>
	<path d="M65.61,81.09l19.93-1.71c0.55-0.05,1.03,0.43,1.08,1.07l0.13,1.94c0.04,0.64-0.37,1.2-0.93,1.25l-19.93,1.71c-0.55,0.05-1.03-0.43-1.08-1.07l-0.13-1.94C64.65,81.7,65.06,81.14,65.61,81.09z"/>
	<path d="M83.91,99.09c0.29,4.54-1.1,8.37-3.11,8.54c-2.01,0.17-3.88-3.37-4.17-7.91c-0.29-4.54,2.65-6.99,4.66-7.16C83.3,92.38,83.61,94.55,83.91,99.09z"/>
	<path d="M140.12,98.14c0.84,4.45-0.07,8.46-2.04,8.95c-1.97,0.49-4.25-2.71-5.09-7.17s0.52-8.1,2.44-7.39C136.96,93.12,139.27,93.69,140.12,98.14z"/>
</svg>
