<svg xmlns="http://www.w3.org/2000/svg" x="0px" y="0px" viewBox="0 0 512 512">
	<path class="st02" d="M429.4,96.6l-54.9-54.8c-21.3-21.4-50.2-33.4-80.4-33.3H163C100.2,8.6,49.3,59.4,49.3,121.9V390c0,62.6,50.9,113.4,113.6,113.5h186c62.8-0.1,113.6-50.9,113.6-113.4V176.7C462.7,146.7,450.7,117.7,429.4,96.6L429.4,96.6z"/>
	<path class="st04" d="M352,448H160c-29.5,0-53.3-23.9-53.3-53.3V117.3c0-29.5,23.9-53.3,53.3-53.3h100.2c9.5,0,17.2,7.7,17.2,17.2v68.2c0,23.6,19.1,42.7,42.7,42.7h62.2c12.8,0,23.2,10.4,23.2,23.2v179.5C405.3,424.1,381.5,448,352,448z"/>
	<path class="st04" d="M364.5,244.6c12.2,12.8,11.7,33-1.1,45.2l-76.5,72.8c-29.2,28.6-76.1,28.4-105-0.5l-32.5-28.9c-13.2-11.8-14.3-32-2.6-45.2c11.8-13.2,32-14.3,45.2-2.6l0,0l33.8,30.2c2.2,2.6,5.4,4.2,8.8,4.4c2.8,0,5.5-1.1,7.5-3.1l77.1-73.4C332.1,231.3,352.3,231.8,364.5,244.6L364.5,244.6z"/>
</svg>
