<svg id="레이어_1" data-name="레이어 1" xmlns="http://www.w3.org/2000/svg" viewBox="0 0 200 60"><defs><style>.cls-1,.cls-2{fill:#00a0e9;}.cls-1{opacity:0.15;}</style></defs><path d="M31.07,24.41a1.54,1.54,0,0,0,.13-.62c0-.22,0-.48,0-.77a7.54,7.54,0,0,1,0-.81c0-.58.1-1.12.14-1.64s.08-1,.1-1.55,0-1.05,0-1.58-.06-1.1-.12-1.74c-.08-.22-.19-.48-.33-.77a7.6,7.6,0,0,1-.37-.89,8.47,8.47,0,0,1-.3-.89,1.88,1.88,0,0,1,0-.85c.1-.5.6-.87,1.5-1.1a4.37,4.37,0,0,1,3.17.64,9.79,9.79,0,0,0,1.1.81,5.61,5.61,0,0,0,1.35.64A4.07,4.07,0,0,1,39,15.55a3.4,3.4,0,0,1-.22,2.72c-.07.56-.15,1.07-.24,1.54s-.16.92-.23,1.37-.14.87-.19,1.28A10.85,10.85,0,0,0,38,23.75h1.29A2.12,2.12,0,0,1,40.78,25a3.15,3.15,0,0,1,.12,1.93,4.24,4.24,0,0,1-1,1.91,3.45,3.45,0,0,1-2,1.08,24.51,24.51,0,0,0-.76,4.9c-.08,1.66-.11,3.26-.08,4.81l.12,1.22A2.71,2.71,0,0,1,37.05,42a1.82,1.82,0,0,1-.72.92,4.07,4.07,0,0,1-1.66.54l-.88.33a3.84,3.84,0,0,1-2,.74A1.79,1.79,0,0,1,30.41,44a2.27,2.27,0,0,1-.7-1.25,3.09,3.09,0,0,1,.05-1.62,18.43,18.43,0,0,0,.3-2.07c.07-.69.13-1.38.18-2.08s.1-1.43.16-2.13.13-1.43.24-2.18l.08-1.2a4.43,4.43,0,0,0-.17-1.1c-.07-.24-.17-.31-.28-.23l-2.68.7a9.85,9.85,0,0,0-1.12.42,7.88,7.88,0,0,1-1.37.46,3.72,3.72,0,0,1-1.45,0,2.24,2.24,0,0,1-1.35-.88.48.48,0,0,1-.22-.14,1,1,0,0,1-.18-.23.86.86,0,0,1-.22-.21,1.88,1.88,0,0,1-.18-.24q-.12,1.28-.21,2.55c-.06.84-.1,1.68-.13,2.51s-.1,1.66-.13,2.49l-.09,2.49c0,.3,0,.62,0,.95a2.89,2.89,0,0,1-.12,1,2.62,2.62,0,0,1-.49,1,2.25,2.25,0,0,1-1,.71l-.81.12-.65.08-.5.09a.64.64,0,0,0-.34.16,4.21,4.21,0,0,1-1.8.46,2.81,2.81,0,0,1-1.45-.37,2,2,0,0,1-.83-1,2.41,2.41,0,0,1-.08-1.49q.31-3.07.7-6.19t.65-6.26q.32-3.12.51-6.25T15,16.74q0-.75-.09-1.41A2.87,2.87,0,0,0,14.37,14q-1.06-1.41-.63-2.1a2,2,0,0,1,1.52-.8,6.75,6.75,0,0,1,2.43.2,6.1,6.1,0,0,1,2.07.87c.45.42.92.82,1.39,1.21a7.38,7.38,0,0,1,1.18,1.2A3.93,3.93,0,0,1,23.08,16a2.82,2.82,0,0,1,0,1.6c-.1.61-.21,1.22-.33,1.84s-.23,1.24-.34,1.85-.24,1.28-.34,1.93-.16,1.28-.21,1.89a5.18,5.18,0,0,0,2.07.33,15.58,15.58,0,0,0,2.21-.25c.75-.11,1.51-.23,2.28-.37a10.31,10.31,0,0,1,2.27-.17A.34.34,0,0,0,31.07,24.41Z"/><path d="M47.58,44.7a3.17,3.17,0,0,1-1.26-.41,2.31,2.31,0,0,1-.94-.92,1.79,1.79,0,0,1-.19-1.32q.35-3.61.79-7.1c.31-2.32.57-4.65.79-7s.38-4.59.49-6.89a57.34,57.34,0,0,0-.09-6.93,2.35,2.35,0,0,1-.64-2,1.85,1.85,0,0,1,1.08-1.22,3.91,3.91,0,0,1,2.07-.23,5.5,5.5,0,0,1,2.32.85,3.11,3.11,0,0,0,.52.44,5.33,5.33,0,0,0,.57.31,3.77,3.77,0,0,0,.58.27,3.68,3.68,0,0,1,.53.23A4.32,4.32,0,0,1,56,14.52a4.72,4.72,0,0,1,.49,2.05,7.24,7.24,0,0,1-.24,2.16c-.2.72-.36,1.38-.49,2-.44,3.15-.8,6.36-1.06,9.61s-.46,6.6-.58,10.06a5.4,5.4,0,0,1-.29,2.15A2,2,0,0,1,52.28,44c-.34.08-.66.15-1,.2s-.61.1-.91.13-.55.06-.82.1a5.14,5.14,0,0,0-.69.15A2.66,2.66,0,0,1,47.58,44.7Z"/><path d="M84.51,23.81c.07,0,.36-.16.87-.52a55.24,55.24,0,0,0,4.68-3.48q2.41-2,4.61-4.11A11.08,11.08,0,0,0,95.09,14a4.82,4.82,0,0,1,.62-1.81,1.35,1.35,0,0,1,1.33-.7,5.08,5.08,0,0,1,2.59,1.66c.31.5.71,1.08,1.18,1.74a8.08,8.08,0,0,1,1.09,2.07,3.22,3.22,0,0,1,0,2.12,3.4,3.4,0,0,1-1.89,1.83Q98.16,22,95.92,23.44a40.76,40.76,0,0,0-4,2.92,1.2,1.2,0,0,0-.07.69,1.85,1.85,0,0,0,.44.52c.39.63.78,1.28,1.16,1.93s.76,1.29,1.16,1.92.79,1.31,1.2,1.93.84,1.23,1.29,1.81a15.45,15.45,0,0,0,2.12,2.45,14.89,14.89,0,0,1,2.23,2.69,2.9,2.9,0,0,1,.52,2.37c-.21.72-1.2,1.22-3,1.49h-.88c-.27,0-.55,0-.83,0a6.3,6.3,0,0,0-.75,0l-.67.08a3,3,0,0,1-1.77.25A3.58,3.58,0,0,1,92.64,44a4.83,4.83,0,0,1-1-1.06,3.38,3.38,0,0,1-.5-1.1c-.35-.94-.7-1.9-1-2.87s-.69-1.93-1-2.9-.74-1.88-1.15-2.82-.87-1.85-1.36-2.74-.9-1.33-1.31-1.26-.7.56-.9,1.47a10.41,10.41,0,0,1-.2,2c-.13.65-.28,1.3-.44,1.93s-.25,1.27-.36,1.89a6.85,6.85,0,0,0-.06,1.8c0,.5,0,1,0,1.66a5.77,5.77,0,0,1-.33,1.7,3.55,3.55,0,0,1-1,1.37,3.16,3.16,0,0,1-1.85.71l-1.81.6a8.18,8.18,0,0,1-1.85.44,1.83,1.83,0,0,1-1.35-.42c-.35-.3-.46-.94-.31-1.91q1-7,1.51-14.06T77,14.25a3.16,3.16,0,0,1-.1-2,2.29,2.29,0,0,1,1-1.23,2.92,2.92,0,0,1,1.66-.37,5,5,0,0,1,2,.5c.52.27,1.08.59,1.67,1a6.84,6.84,0,0,1,1.54,1.25,3.87,3.87,0,0,1,1,1.59,3,3,0,0,1-.13,2c-.13.47-.23.94-.32,1.41s-.16,1-.24,1.45-.14,1-.22,1.55-.15,1.09-.22,1.64S84.45,23.8,84.51,23.81Z"/><path d="M115,31.51a7.83,7.83,0,0,0,0-.83,2.5,2.5,0,0,0-.08-.75,2.07,2.07,0,0,0-.29-.62q-1-1.53-2.1-3l-2.1-3c-.71-1-1.4-1.93-2.06-2.9a30.68,30.68,0,0,1-1.81-3,2.37,2.37,0,0,0-1-1,4.22,4.22,0,0,1-1.25-1.14,1.31,1.31,0,0,1-.11-1.43,5.84,5.84,0,0,1,2.48-2l3.24,0a4.22,4.22,0,0,1,1.49.17,2.5,2.5,0,0,1,1,.62,5.07,5.07,0,0,1,.69.91l.57,1a12.39,12.39,0,0,0,1,2.13c.43.77.9,1.56,1.43,2.39s1.06,1.7,1.61,2.61,1.05,1.83,1.49,2.74a17.33,17.33,0,0,1,1.09-2.22c.46-.79.94-1.58,1.44-2.38s1-1.66,1.52-2.47,1-1.6,1.39-2.35c0-.27.08-.53.13-.76s.11-.45.17-.65.07-.38.12-.58l.17-.62a1.3,1.3,0,0,1,.31-.68,3,3,0,0,1,.74-.69,2.56,2.56,0,0,1,1-.37,2,2,0,0,1,1.11.16c.79.58,1.51,1.14,2.17,1.66a7.64,7.64,0,0,1,1.58,1.66,3.88,3.88,0,0,1,.69,1.87,4.21,4.21,0,0,1-.5,2.2,30.81,30.81,0,0,0-2.39,3c-.67.95-1.31,1.88-1.92,2.8l-1.81,2.86c-.62,1-1.29,2-2,3-.2.25-.43.59-.7,1a3.63,3.63,0,0,0-.5,1.35c-.07,1.25-.14,2.51-.2,3.78s-.06,2.53,0,3.77a3.9,3.9,0,0,1-.78,3,2.7,2.7,0,0,1-2.57,1.12,4.55,4.55,0,0,0-.8.19,6.15,6.15,0,0,0-.88.31c-1.43.5-2.51.37-3.23-.39a3.13,3.13,0,0,1-.6-3.09c.11-.86.22-1.66.31-2.41s.19-1.47.27-2.16.15-1.32.23-2l.24-2A5.53,5.53,0,0,1,115,31.51Z"/><path d="M158.62,39.25a9,9,0,0,1-2.68,2.92,11.36,11.36,0,0,1-3.7,1.79,17.38,17.38,0,0,1-4.24.62,15.91,15.91,0,0,1-4.21-.48,11.74,11.74,0,0,1-3.62-1.56,8.57,8.57,0,0,1-2.49-2.67,6.51,6.51,0,0,1-.82-3.72c0-1.35,0-2.7.08-4s.14-2.68.24-4,.16-2.66.24-4,.16-2.67.21-4l.05-1.41a9.59,9.59,0,0,0,0-1.21,4.9,4.9,0,0,0-1-2.32,1.3,1.3,0,0,1-.26-1.45,2.74,2.74,0,0,1,1.1-1.12A4.76,4.76,0,0,1,139.2,12a3.27,3.27,0,0,1,1.7.14,6.41,6.41,0,0,0,.82.31l.9.32c.3.11.6.22.88.35a3.68,3.68,0,0,1,.76.43,4.52,4.52,0,0,1,1.6,1.21,2.55,2.55,0,0,1,.51,1.28,3.28,3.28,0,0,1-.21,1.31,12.41,12.41,0,0,1-.5,1.22,52.1,52.1,0,0,0-1,7.72Q144.51,30,144.5,34a3.8,3.8,0,0,0,1,3.15,3.93,3.93,0,0,0,2.6,1.2,3.79,3.79,0,0,0,2.69-1A4.63,4.63,0,0,0,152.23,34q.56-5.24.8-9.71a46.43,46.43,0,0,0-.36-8.84,2.26,2.26,0,0,1-.33-1.76,3,3,0,0,1,.91-1.52,3.27,3.27,0,0,1,1.71-.89,3.9,3.9,0,0,1,2.26.23c.41.19.9.4,1.47.62a9,9,0,0,1,1.64.83,4.28,4.28,0,0,1,1.2,1.2,2.41,2.41,0,0,1,.36,1.7,24.68,24.68,0,0,0-1.14,4.63c-.24,1.62-.41,3.26-.53,4.92s-.19,3.32-.23,5-.14,3.25-.27,4.77A8.82,8.82,0,0,1,158.62,39.25Z"/><path d="M174.1,19.07a5.23,5.23,0,0,1,1,.8,20.67,20.67,0,0,1,2.82,5.66,18.43,18.43,0,0,1,.95,6.27,15.55,15.55,0,0,1-1.43,6A24.75,24.75,0,0,1,174,43.3a3.06,3.06,0,0,1-1,.74,2.73,2.73,0,0,1-1.21.29,2,2,0,0,1-1.24-.44c-.38-.29-.56-.57-.55-.83a4,4,0,0,1,.12-.64,5.25,5.25,0,0,1,.51-1.2,30.52,30.52,0,0,0,1.94-4.7,17.52,17.52,0,0,0,.82-4.72,20.91,20.91,0,0,0-.39-5.05,30.52,30.52,0,0,0-1.57-5.13c-.12-.26-.22-.47-.29-.64s-.15-.3-.2-.42a2.13,2.13,0,0,1-.09-.27,1.14,1.14,0,0,1,0-.27c0-.3.24-.6.69-.88a2.49,2.49,0,0,1,1.35-.42A2.3,2.3,0,0,1,174.1,19.07Z"/><path d="M187.5,22.9c.4,0,.79,0,1.16.08a1.89,1.89,0,0,1,1.4,1.3,2.52,2.52,0,0,1-.23,1.75,3.92,3.92,0,0,1-1.36,1.46,2.78,2.78,0,0,1-2,.47,2.74,2.74,0,0,1-1.57-.92,3.11,3.11,0,0,1-.77-1.59,2.27,2.27,0,0,1,.34-1.58,2.51,2.51,0,0,1,1.78-1Zm-2.26,17.86a5.49,5.49,0,0,0,.55-1,2.32,2.32,0,0,1-1.44-.91,2.77,2.77,0,0,1-.56-1.54,2.5,2.5,0,0,1,.47-1.55,2.76,2.76,0,0,1,1.77-1l.68,0,.53,0,.42,0,.45,0a2.61,2.61,0,0,1,1,.57,2.33,2.33,0,0,1,.55.75,2.67,2.67,0,0,1,.21.83c0,.28,0,.51,0,.71a4.58,4.58,0,0,1-.3,1.47,8,8,0,0,1-.68,1.34,7.08,7.08,0,0,1-.77,1.12,9.52,9.52,0,0,1-.69.75,5.42,5.42,0,0,1-1,.65,2,2,0,0,1-.94.26,1.18,1.18,0,0,1-1-.32,1,1,0,0,1-.47-.77.83.83,0,0,1,.11-.36,1.15,1.15,0,0,1,.32-.36A5,5,0,0,0,185.24,40.76Z"/><rect class="cls-1" width="200" height="60"/><polygon class="cls-2" points="188.53 50.62 185.24 50.55 183.32 53.23 182.36 50.08 179.22 49.08 181.92 47.2 181.9 43.91 184.53 45.89 187.66 44.85 186.58 47.97 188.53 50.62"/><path class="cls-2" d="M148.86,53.83a52.27,52.27,0,0,0,26.7,1.5,2.5,2.5,0,0,0-1.33-4.82,47,47,0,0,1-24-1.51c-3.07-1-4.38,3.82-1.33,4.83Z"/></svg>