<svg xmlns="http://www.w3.org/2000/svg" x="0px" y="0px" viewBox="0 0 512 512" style="enable-background:new 0 0 512 512;">
	<path class="st0" d="M256.1,6.6C195.2,6.4,136.7,30.6,93.8,73.9C4.2,164.1,4.6,309.8,94.7,399.5l77.9,71.9c46,45.2,119.9,45.5,166.4,0.7l79.4-73.5c89.3-89.9,89.3-234.8,0-324.6C375.5,30.6,317.1,6.4,256.1,6.6z"/>
	<path class="st1" d="M373.7,353l-78.5,72.7c-22.2,21.2-57.3,20.9-79.2-0.6l-76.9-71.3c-64.5-64.9-64.5-169.6,0-234.6c64-64.4,168.2-64.7,232.8-0.8c0.3,0.3,0.6,0.6,0.8,0.8l0,0C437.2,183.7,437.6,287.9,373.7,353z"/>
	<path class="st2" d="M362.7,229.7v95.6c0,13.6-9.6,24.7-21.3,24.7H320c-11.8,0-21.3-11.1-21.3-24.7v-49.4c0-13.6-9.6-24.7-21.3-24.7h-42.7c-11.8,0-21.3,11.1-21.3,24.7v49.4c0,13.6-9.6,24.7-21.3,24.7h-21.3c-11.8,0-21.3-11.1-21.3-24.7v-95.6c0-16.2,6.9-31.3,18.3-40.6l64-51.4c14.6-11.7,34-11.7,48.6,0l64,51.4C355.8,198.4,362.7,213.6,362.7,229.7z"/>
</svg>
