<svg xmlns="http://www.w3.org/2000/svg" x="0px" y="0px" viewBox="0 0 512 512">
	<path class="st03" d="M499,467.1L375.4,345c72.6-87.7,59.4-216.8-29.3-288.5S126.6-2.4,54,85.4S-5.4,302.2,83.3,373.9c76.4,61.7,186.3,61.7,262.7,0l123.7,122.3c8.3,7.9,21.3,7.6,29.3-0.5C506.8,487.7,506.8,475.1,499,467.1z"/>
	<path class="st04" d="M68.6,210.6C68.6,133,133.7,70,214,70s145.4,63,145.4,140.6S294.3,351.3,214,351.3C133.8,351.2,68.7,288.3,68.6,210.6z"/>
	<path class="st04" d="M256.6,128.7c-15.9,0.1-31.2,6.3-42.6,17.4c-11.4-11.1-26.7-17.3-42.6-17.4c-36.4,1.3-65,31.7-63.9,68.2c0,42.6,43.5,86.6,80,115.9c15.5,12.4,37.6,12.4,53.1,0c36.5-29.3,80-73.3,80-115.9C321.6,160.4,293.1,129.9,256.6,128.7z"/>
</svg>
